<?xml version="1.0" encoding="UTF-8"?>
<!DOCTYPE svg PUBLIC "-//W3C//DTD SVG 1.1//EN" "http://www.w3.org/Graphics/SVG/1.1/DTD/svg11.dtd">
<!-- Creator: CorelDRAW X7 -->
<svg xmlns="http://www.w3.org/2000/svg" xml:space="preserve" width="4.33071in" height="1.1811in" version="1.1" style="shape-rendering:geometricPrecision; text-rendering:geometricPrecision; image-rendering:optimizeQuality; fill-rule:evenodd; clip-rule:evenodd"
viewBox="0 0 4331 1181"
 xmlns:xlink="http://www.w3.org/1999/xlink">
 <defs>
  <style type="text/css">
   <![CDATA[
    .fil0 {fill:#EEEEEF;fill-rule:nonzero}
   ]]>
  </style>
 </defs>
 <g id="Layer_x0020_1">
  <metadata id="CorelCorpID_0Corel-Layer"/>
  <path class="fil0" d="M666 439c0,-18 -4,-34 -11,-46 -8,-13 -20,-24 -38,-31 -13,-5 -27,-8 -44,-9 -17,-2 -36,-2 -58,-2l-67 0 0 194 57 0c29,0 54,-2 74,-4 20,-3 36,-10 50,-20 13,-10 22,-21 28,-33 6,-13 9,-29 9,-49zm294 505l-229 0 -198 -267 -85 0 0 267 -188 0 0 -727 314 0c43,0 80,2 111,7 31,5 60,16 87,32 27,16 49,37 65,63 16,26 24,58 24,97 0,54 -12,98 -37,132 -25,33 -61,62 -107,84l243 312zm553 0l-526 0 0 -727 526 0 0 141 -338 0 0 125 314 0 0 141 -314 0 0 179 338 0 0 141zm703 -498c0,33 -6,65 -17,96 -12,31 -28,57 -49,78 -29,29 -61,50 -97,65 -35,15 -80,22 -133,22l-116 0 0 237 -188 0 0 -727 308 0c47,0 86,4 117,12 32,8 60,20 85,36 29,19 51,44 67,73 15,30 23,66 23,108zm-195 5c0,-21 -6,-38 -17,-53 -11,-15 -23,-25 -38,-31 -19,-8 -38,-12 -56,-13 -19,-1 -43,-1 -74,-1l-32 0 0 217 53 0c32,0 58,-2 78,-6 21,-4 38,-12 52,-23 12,-11 21,-23 26,-37 5,-15 8,-33 8,-53zm1455 493l-524 0 0 -727 188 0 0 586 336 0 0 141zm699 -727l-268 446 0 281 -188 0 0 -273 -272 -454 213 0 156 281 152 -281 207 0zm-1615 137c-25,25 -43,46 -54,62 -12,16 -24,39 -37,69 -10,22 -17,44 -21,69 -5,21 -8,49 -8,82 0,48 4,87 13,119 10,32 23,55 41,72 17,16 39,24 64,24 20,0 41,-8 62,-23 21,-14 40,-34 57,-58 17,-24 31,-51 42,-81 10,-29 15,-58 15,-85 0,-50 -17,-102 -51,-155 -12,-22 -19,-37 -19,-45 0,-15 9,-30 25,-45 18,-17 39,-33 63,-47 24,-13 43,-20 57,-20 8,0 16,2 25,5 9,4 16,9 20,15 12,12 21,34 29,66 8,32 11,66 11,101 0,86 -17,165 -52,237 -35,72 -82,129 -142,171 -60,42 -125,64 -195,64 -40,0 -80,-8 -119,-23 -39,-14 -71,-34 -96,-59 -42,-42 -62,-96 -62,-164 0,-39 7,-80 22,-124 16,-44 37,-86 63,-128 27,-41 57,-79 92,-114 35,-34 71,-61 108,-81 34,-18 70,-32 109,-43 38,-11 72,-17 102,-17 41,0 61,7 61,19 0,5 -4,13 -12,24 -16,15 -30,25 -42,31 -12,6 -31,13 -58,21 -29,9 -50,16 -63,23 -13,8 -29,20 -50,38z"/>
 </g>
</svg>
